<mxfile host="app.diagrams.net" modified="2022-02-28T17:22:21.723Z" agent="5.0 (Macintosh; Intel Mac OS X 10_15_7) AppleWebKit/537.36 (KHTML, like Gecko) Chrome/98.0.4758.109 Safari/537.36" etag="D7ngeNFF2M-DwMw8KL9j" version="16.6.4" type="github">
  <diagram id="dhxZo5bOsweKaPsGyGoM" name="Page-1">
    <mxGraphModel dx="946" dy="614" grid="1" gridSize="10" guides="1" tooltips="1" connect="1" arrows="1" fold="1" page="1" pageScale="1" pageWidth="827" pageHeight="1169" math="0" shadow="0">
      <root>
        <mxCell id="0" />
        <mxCell id="1" parent="0" />
        <mxCell id="O7LTYCWYYsUHRz5URTXL-1" value="" style="shape=note;whiteSpace=wrap;html=1;backgroundOutline=1;darkOpacity=0.05;size=28;" vertex="1" parent="1">
          <mxGeometry x="30" y="40" width="80" height="100" as="geometry" />
        </mxCell>
        <mxCell id="O7LTYCWYYsUHRz5URTXL-2" value="" style="shape=flexArrow;endArrow=classic;html=1;rounded=0;exitX=0;exitY=0;exitDx=80;exitDy=64;exitPerimeter=0;" edge="1" parent="1" source="O7LTYCWYYsUHRz5URTXL-1">
          <mxGeometry width="50" height="50" relative="1" as="geometry">
            <mxPoint x="410" y="200" as="sourcePoint" />
            <mxPoint x="150" y="104" as="targetPoint" />
            <Array as="points" />
          </mxGeometry>
        </mxCell>
        <mxCell id="O7LTYCWYYsUHRz5URTXL-3" value="Last SMS Agg&lt;br&gt;Date" style="shape=cylinder3;whiteSpace=wrap;html=1;boundedLbl=1;backgroundOutline=1;size=15;" vertex="1" parent="1">
          <mxGeometry x="590" y="210" width="100" height="80" as="geometry" />
        </mxCell>
        <mxCell id="O7LTYCWYYsUHRz5URTXL-5" value="Debit Card" style="shape=cylinder3;whiteSpace=wrap;html=1;boundedLbl=1;backgroundOutline=1;size=15;" vertex="1" parent="1">
          <mxGeometry x="670" y="1015" width="100" height="80" as="geometry" />
        </mxCell>
        <mxCell id="O7LTYCWYYsUHRz5URTXL-7" value="" style="edgeStyle=orthogonalEdgeStyle;rounded=0;orthogonalLoop=1;jettySize=auto;html=1;" edge="1" parent="1" source="O7LTYCWYYsUHRz5URTXL-6" target="O7LTYCWYYsUHRz5URTXL-5">
          <mxGeometry relative="1" as="geometry" />
        </mxCell>
        <mxCell id="O7LTYCWYYsUHRz5URTXL-6" value="Account Number" style="shape=cylinder3;whiteSpace=wrap;html=1;boundedLbl=1;backgroundOutline=1;size=15;" vertex="1" parent="1">
          <mxGeometry x="670" y="1110" width="100" height="80" as="geometry" />
        </mxCell>
        <mxCell id="O7LTYCWYYsUHRz5URTXL-10" style="edgeStyle=orthogonalEdgeStyle;rounded=0;orthogonalLoop=1;jettySize=auto;html=1;fontSize=16;" edge="1" parent="1" source="O7LTYCWYYsUHRz5URTXL-8">
          <mxGeometry relative="1" as="geometry">
            <mxPoint x="365" y="190" as="targetPoint" />
          </mxGeometry>
        </mxCell>
        <mxCell id="O7LTYCWYYsUHRz5URTXL-8" value="&lt;font style=&quot;font-size: 16px&quot;&gt;Preprocessing&lt;/font&gt;" style="rounded=1;whiteSpace=wrap;html=1;" vertex="1" parent="1">
          <mxGeometry x="282.5" y="40" width="165" height="120" as="geometry" />
        </mxCell>
        <mxCell id="O7LTYCWYYsUHRz5URTXL-11" value="yes" style="edgeStyle=orthogonalEdgeStyle;rounded=0;orthogonalLoop=1;jettySize=auto;html=1;exitX=0.5;exitY=1;exitDx=0;exitDy=0;fontSize=16;" edge="1" parent="1" source="O7LTYCWYYsUHRz5URTXL-22">
          <mxGeometry x="-0.6078" y="3" relative="1" as="geometry">
            <mxPoint x="367" y="340" as="targetPoint" />
            <mxPoint x="365" y="290" as="sourcePoint" />
            <mxPoint as="offset" />
          </mxGeometry>
        </mxCell>
        <mxCell id="O7LTYCWYYsUHRz5URTXL-13" style="edgeStyle=orthogonalEdgeStyle;rounded=0;orthogonalLoop=1;jettySize=auto;html=1;exitX=0;exitY=0.5;exitDx=0;exitDy=0;fontSize=16;" edge="1" parent="1">
          <mxGeometry relative="1" as="geometry">
            <mxPoint x="70" y="160" as="targetPoint" />
            <mxPoint x="290" y="240" as="sourcePoint" />
          </mxGeometry>
        </mxCell>
        <mxCell id="O7LTYCWYYsUHRz5URTXL-14" value="No" style="edgeLabel;html=1;align=center;verticalAlign=middle;resizable=0;points=[];fontSize=16;" vertex="1" connectable="0" parent="O7LTYCWYYsUHRz5URTXL-13">
          <mxGeometry x="-0.4714" relative="1" as="geometry">
            <mxPoint y="-2" as="offset" />
          </mxGeometry>
        </mxCell>
        <mxCell id="O7LTYCWYYsUHRz5URTXL-15" value="Next" style="edgeLabel;html=1;align=center;verticalAlign=middle;resizable=0;points=[];fontSize=16;" vertex="1" connectable="0" parent="O7LTYCWYYsUHRz5URTXL-13">
          <mxGeometry x="0.8464" relative="1" as="geometry">
            <mxPoint y="18" as="offset" />
          </mxGeometry>
        </mxCell>
        <mxCell id="O7LTYCWYYsUHRz5URTXL-18" value="" style="endArrow=classic;html=1;rounded=0;fontSize=12;entryX=0.5;entryY=1;entryDx=0;entryDy=0;entryPerimeter=0;" edge="1" parent="1">
          <mxGeometry width="50" height="50" relative="1" as="geometry">
            <mxPoint x="367" y="310" as="sourcePoint" />
            <mxPoint x="637" y="290" as="targetPoint" />
            <Array as="points">
              <mxPoint x="637" y="310" />
            </Array>
          </mxGeometry>
        </mxCell>
        <mxCell id="O7LTYCWYYsUHRz5URTXL-20" value="Update" style="edgeLabel;html=1;align=center;verticalAlign=middle;resizable=0;points=[];fontSize=12;" vertex="1" connectable="0" parent="O7LTYCWYYsUHRz5URTXL-18">
          <mxGeometry x="-0.0068" y="2" relative="1" as="geometry">
            <mxPoint as="offset" />
          </mxGeometry>
        </mxCell>
        <mxCell id="O7LTYCWYYsUHRz5URTXL-21" value="" style="endArrow=classic;html=1;rounded=0;fontSize=12;exitX=0;exitY=0;exitDx=0;exitDy=27.5;exitPerimeter=0;entryX=1;entryY=0.5;entryDx=0;entryDy=0;" edge="1" parent="1" source="O7LTYCWYYsUHRz5URTXL-3">
          <mxGeometry width="50" height="50" relative="1" as="geometry">
            <mxPoint x="390" y="330" as="sourcePoint" />
            <mxPoint x="440" y="240" as="targetPoint" />
          </mxGeometry>
        </mxCell>
        <mxCell id="O7LTYCWYYsUHRz5URTXL-22" value="sms_date &amp;gt; last_sms_agg_date" style="rounded=1;whiteSpace=wrap;html=1;fontSize=12;" vertex="1" parent="1">
          <mxGeometry x="294" y="190" width="146" height="80" as="geometry" />
        </mxCell>
        <mxCell id="O7LTYCWYYsUHRz5URTXL-24" value="" style="edgeStyle=orthogonalEdgeStyle;rounded=0;orthogonalLoop=1;jettySize=auto;html=1;fontSize=12;" edge="1" parent="1" source="O7LTYCWYYsUHRz5URTXL-23" target="O7LTYCWYYsUHRz5URTXL-8">
          <mxGeometry relative="1" as="geometry" />
        </mxCell>
        <mxCell id="O7LTYCWYYsUHRz5URTXL-23" value="&lt;b style=&quot;background-color: rgb(212 , 225 , 245)&quot;&gt;Filter1:&lt;/b&gt;&lt;br&gt;Only SMS from Bank&lt;br&gt;(Sender address has bank code in it)" style="rounded=0;whiteSpace=wrap;html=1;fontSize=12;" vertex="1" parent="1">
          <mxGeometry x="150" y="30" width="80" height="140" as="geometry" />
        </mxCell>
        <mxCell id="O7LTYCWYYsUHRz5URTXL-27" value="" style="edgeStyle=orthogonalEdgeStyle;rounded=0;orthogonalLoop=1;jettySize=auto;html=1;fontSize=12;" edge="1" parent="1" source="O7LTYCWYYsUHRz5URTXL-25" target="O7LTYCWYYsUHRz5URTXL-26">
          <mxGeometry relative="1" as="geometry" />
        </mxCell>
        <mxCell id="O7LTYCWYYsUHRz5URTXL-69" value="Save the Amounts" style="edgeLabel;html=1;align=center;verticalAlign=middle;resizable=0;points=[];fontSize=13;fontColor=#000000;" vertex="1" connectable="0" parent="O7LTYCWYYsUHRz5URTXL-27">
          <mxGeometry x="-0.64" relative="1" as="geometry">
            <mxPoint as="offset" />
          </mxGeometry>
        </mxCell>
        <mxCell id="O7LTYCWYYsUHRz5URTXL-25" value="&lt;b style=&quot;background-color: rgb(212 , 225 , 245)&quot;&gt;Filter2:&lt;/b&gt;&lt;br&gt;Number of Amounts &amp;gt; 0&lt;br&gt;&lt;b&gt;(Regex)&lt;/b&gt;" style="rounded=0;whiteSpace=wrap;html=1;fontSize=12;" vertex="1" parent="1">
          <mxGeometry x="250" y="340" width="250" height="70" as="geometry" />
        </mxCell>
        <mxCell id="O7LTYCWYYsUHRz5URTXL-26" value="&lt;b style=&quot;background-color: rgb(212 , 225 , 245)&quot;&gt;Filter3:&lt;/b&gt;&lt;br&gt;Account Number/Debit Card &lt;br&gt;Found &lt;b&gt;&lt;font style=&quot;font-size: 13px&quot;&gt;(Regex)&lt;/font&gt;&lt;/b&gt;" style="rounded=0;whiteSpace=wrap;html=1;fontSize=12;" vertex="1" parent="1">
          <mxGeometry x="250" y="440" width="250" height="70" as="geometry" />
        </mxCell>
        <mxCell id="O7LTYCWYYsUHRz5URTXL-29" value="Save the Acc No/Debit Card No" style="endArrow=classic;html=1;rounded=0;fontSize=13;exitX=0.5;exitY=1;exitDx=0;exitDy=0;entryX=0.5;entryY=0;entryDx=0;entryDy=0;" edge="1" parent="1" source="O7LTYCWYYsUHRz5URTXL-26" target="O7LTYCWYYsUHRz5URTXL-73">
          <mxGeometry width="50" height="50" relative="1" as="geometry">
            <mxPoint x="390" y="600" as="sourcePoint" />
            <mxPoint x="375" y="550" as="targetPoint" />
          </mxGeometry>
        </mxCell>
        <mxCell id="O7LTYCWYYsUHRz5URTXL-30" value="" style="endArrow=classic;html=1;rounded=0;fontSize=13;" edge="1" parent="1">
          <mxGeometry width="50" height="50" relative="1" as="geometry">
            <mxPoint x="460" y="715" as="sourcePoint" />
            <mxPoint x="540" y="765" as="targetPoint" />
            <Array as="points">
              <mxPoint x="540" y="715" />
            </Array>
          </mxGeometry>
        </mxCell>
        <mxCell id="O7LTYCWYYsUHRz5URTXL-31" value="" style="endArrow=classic;html=1;rounded=0;fontSize=13;entryX=0.438;entryY=-0.033;entryDx=0;entryDy=0;entryPerimeter=0;" edge="1" parent="1" target="O7LTYCWYYsUHRz5URTXL-34">
          <mxGeometry width="50" height="50" relative="1" as="geometry">
            <mxPoint x="310" y="715" as="sourcePoint" />
            <mxPoint x="219.5" y="765" as="targetPoint" />
            <Array as="points">
              <mxPoint x="215" y="715" />
            </Array>
          </mxGeometry>
        </mxCell>
        <mxCell id="O7LTYCWYYsUHRz5URTXL-33" value="" style="endArrow=classic;html=1;rounded=0;fontSize=13;entryX=0.5;entryY=0;entryDx=0;entryDy=0;" edge="1" parent="1" target="O7LTYCWYYsUHRz5URTXL-35">
          <mxGeometry width="50" height="50" relative="1" as="geometry">
            <mxPoint x="380" y="745" as="sourcePoint" />
            <mxPoint x="380" y="705" as="targetPoint" />
          </mxGeometry>
        </mxCell>
        <mxCell id="O7LTYCWYYsUHRz5URTXL-34" value="Transactional&lt;br&gt;with&lt;br&gt;Avl Bal" style="rounded=1;whiteSpace=wrap;html=1;labelBackgroundColor=#D4E1F5;fontSize=13;" vertex="1" parent="1">
          <mxGeometry x="162.5" y="765" width="120" height="60" as="geometry" />
        </mxCell>
        <mxCell id="O7LTYCWYYsUHRz5URTXL-35" value="Transactional&lt;br&gt;without&lt;br&gt;Avl Bal" style="rounded=1;whiteSpace=wrap;html=1;labelBackgroundColor=#D4E1F5;fontSize=13;" vertex="1" parent="1">
          <mxGeometry x="320" y="765" width="120" height="60" as="geometry" />
        </mxCell>
        <mxCell id="O7LTYCWYYsUHRz5URTXL-36" value="Non Transactional&lt;br&gt;with Avl Bal" style="rounded=1;whiteSpace=wrap;html=1;labelBackgroundColor=#D4E1F5;fontSize=13;" vertex="1" parent="1">
          <mxGeometry x="480" y="765" width="120" height="60" as="geometry" />
        </mxCell>
        <mxCell id="O7LTYCWYYsUHRz5URTXL-37" value="&lt;span style=&quot;background-color: rgb(255 , 255 , 255)&quot;&gt;Combined Decision&lt;br&gt;&lt;b&gt;1.&lt;/b&gt; No of txn amounts&lt;br&gt;&lt;b&gt;2.&lt;/b&gt; Transaction Keywords&lt;/span&gt;" style="rounded=0;whiteSpace=wrap;html=1;labelBackgroundColor=#D4E1F5;fontSize=13;" vertex="1" parent="1">
          <mxGeometry x="310" y="680" width="150" height="65" as="geometry" />
        </mxCell>
        <mxCell id="O7LTYCWYYsUHRz5URTXL-38" value="Table" style="shape=table;startSize=30;container=1;collapsible=0;childLayout=tableLayout;fontStyle=1;align=center;labelBackgroundColor=#FFFFFF;fontSize=13;fontColor=#000000;" vertex="1" parent="1">
          <mxGeometry x="134" y="865" width="280" height="120" as="geometry" />
        </mxCell>
        <mxCell id="O7LTYCWYYsUHRz5URTXL-39" value="" style="shape=tableRow;horizontal=0;startSize=0;swimlaneHead=0;swimlaneBody=0;top=0;left=0;bottom=0;right=0;collapsible=0;dropTarget=0;fillColor=none;points=[[0,0.5],[1,0.5]];portConstraint=eastwest;labelBackgroundColor=#FFFFFF;fontSize=13;fontColor=#000000;" vertex="1" parent="O7LTYCWYYsUHRz5URTXL-38">
          <mxGeometry y="30" width="280" height="30" as="geometry" />
        </mxCell>
        <mxCell id="O7LTYCWYYsUHRz5URTXL-40" value="50.00" style="shape=partialRectangle;html=1;whiteSpace=wrap;connectable=0;fillColor=none;top=0;left=0;bottom=0;right=0;overflow=hidden;labelBackgroundColor=#FFFFFF;fontSize=13;fontColor=#000000;" vertex="1" parent="O7LTYCWYYsUHRz5URTXL-39">
          <mxGeometry width="76" height="30" as="geometry">
            <mxRectangle width="76" height="30" as="alternateBounds" />
          </mxGeometry>
        </mxCell>
        <mxCell id="O7LTYCWYYsUHRz5URTXL-41" value="1560.00" style="shape=partialRectangle;html=1;whiteSpace=wrap;connectable=0;fillColor=none;top=0;left=0;bottom=0;right=0;overflow=hidden;labelBackgroundColor=#FFFFFF;fontSize=13;fontColor=#000000;" vertex="1" parent="O7LTYCWYYsUHRz5URTXL-39">
          <mxGeometry x="76" width="80" height="30" as="geometry">
            <mxRectangle width="80" height="30" as="alternateBounds" />
          </mxGeometry>
        </mxCell>
        <mxCell id="O7LTYCWYYsUHRz5URTXL-42" value="x1480 / d1480" style="shape=partialRectangle;html=1;whiteSpace=wrap;connectable=0;fillColor=none;top=0;left=0;bottom=0;right=0;overflow=hidden;labelBackgroundColor=#FFFFFF;fontSize=13;fontColor=#000000;" vertex="1" parent="O7LTYCWYYsUHRz5URTXL-39">
          <mxGeometry x="156" width="124" height="30" as="geometry">
            <mxRectangle width="124" height="30" as="alternateBounds" />
          </mxGeometry>
        </mxCell>
        <mxCell id="O7LTYCWYYsUHRz5URTXL-43" value="" style="shape=tableRow;horizontal=0;startSize=0;swimlaneHead=0;swimlaneBody=0;top=0;left=0;bottom=0;right=0;collapsible=0;dropTarget=0;fillColor=none;points=[[0,0.5],[1,0.5]];portConstraint=eastwest;labelBackgroundColor=#FFFFFF;fontSize=13;fontColor=#000000;" vertex="1" parent="O7LTYCWYYsUHRz5URTXL-38">
          <mxGeometry y="60" width="280" height="30" as="geometry" />
        </mxCell>
        <mxCell id="O7LTYCWYYsUHRz5URTXL-44" value="50.00" style="shape=partialRectangle;html=1;whiteSpace=wrap;connectable=0;fillColor=none;top=0;left=0;bottom=0;right=0;overflow=hidden;labelBackgroundColor=#FFFFFF;fontSize=13;fontColor=#000000;" vertex="1" parent="O7LTYCWYYsUHRz5URTXL-43">
          <mxGeometry width="76" height="30" as="geometry">
            <mxRectangle width="76" height="30" as="alternateBounds" />
          </mxGeometry>
        </mxCell>
        <mxCell id="O7LTYCWYYsUHRz5URTXL-45" value="-1" style="shape=partialRectangle;html=1;whiteSpace=wrap;connectable=0;fillColor=none;top=0;left=0;bottom=0;right=0;overflow=hidden;labelBackgroundColor=#FFFFFF;fontSize=13;fontColor=#000000;" vertex="1" parent="O7LTYCWYYsUHRz5URTXL-43">
          <mxGeometry x="76" width="80" height="30" as="geometry">
            <mxRectangle width="80" height="30" as="alternateBounds" />
          </mxGeometry>
        </mxCell>
        <mxCell id="O7LTYCWYYsUHRz5URTXL-46" value="x1480 / d1480" style="shape=partialRectangle;html=1;whiteSpace=wrap;connectable=0;fillColor=none;top=0;left=0;bottom=0;right=0;overflow=hidden;labelBackgroundColor=#FFFFFF;fontSize=13;fontColor=#000000;" vertex="1" parent="O7LTYCWYYsUHRz5URTXL-43">
          <mxGeometry x="156" width="124" height="30" as="geometry">
            <mxRectangle width="124" height="30" as="alternateBounds" />
          </mxGeometry>
        </mxCell>
        <mxCell id="O7LTYCWYYsUHRz5URTXL-47" value="" style="shape=tableRow;horizontal=0;startSize=0;swimlaneHead=0;swimlaneBody=0;top=0;left=0;bottom=0;right=0;collapsible=0;dropTarget=0;fillColor=none;points=[[0,0.5],[1,0.5]];portConstraint=eastwest;labelBackgroundColor=#FFFFFF;fontSize=13;fontColor=#000000;" vertex="1" parent="O7LTYCWYYsUHRz5URTXL-38">
          <mxGeometry y="90" width="280" height="30" as="geometry" />
        </mxCell>
        <mxCell id="O7LTYCWYYsUHRz5URTXL-48" value="0" style="shape=partialRectangle;html=1;whiteSpace=wrap;connectable=0;fillColor=none;top=0;left=0;bottom=0;right=0;overflow=hidden;labelBackgroundColor=#FFFFFF;fontSize=13;fontColor=#000000;" vertex="1" parent="O7LTYCWYYsUHRz5URTXL-47">
          <mxGeometry width="76" height="30" as="geometry">
            <mxRectangle width="76" height="30" as="alternateBounds" />
          </mxGeometry>
        </mxCell>
        <mxCell id="O7LTYCWYYsUHRz5URTXL-49" value="1500.00" style="shape=partialRectangle;html=1;whiteSpace=wrap;connectable=0;fillColor=none;top=0;left=0;bottom=0;right=0;overflow=hidden;labelBackgroundColor=#FFFFFF;fontSize=13;fontColor=#000000;" vertex="1" parent="O7LTYCWYYsUHRz5URTXL-47">
          <mxGeometry x="76" width="80" height="30" as="geometry">
            <mxRectangle width="80" height="30" as="alternateBounds" />
          </mxGeometry>
        </mxCell>
        <mxCell id="O7LTYCWYYsUHRz5URTXL-50" value="x1480 / d1480" style="shape=partialRectangle;html=1;whiteSpace=wrap;connectable=0;fillColor=none;top=0;left=0;bottom=0;right=0;overflow=hidden;labelBackgroundColor=#FFFFFF;fontSize=13;fontColor=#000000;" vertex="1" parent="O7LTYCWYYsUHRz5URTXL-47">
          <mxGeometry x="156" width="124" height="30" as="geometry">
            <mxRectangle width="124" height="30" as="alternateBounds" />
          </mxGeometry>
        </mxCell>
        <mxCell id="O7LTYCWYYsUHRz5URTXL-51" value="" style="endArrow=classic;html=1;rounded=0;fontSize=13;fontColor=#000000;exitX=0;exitY=0.5;exitDx=0;exitDy=0;entryX=0;entryY=0.5;entryDx=0;entryDy=0;" edge="1" parent="1" source="O7LTYCWYYsUHRz5URTXL-34" target="O7LTYCWYYsUHRz5URTXL-39">
          <mxGeometry width="50" height="50" relative="1" as="geometry">
            <mxPoint x="390" y="935" as="sourcePoint" />
            <mxPoint x="440" y="885" as="targetPoint" />
            <Array as="points">
              <mxPoint x="80" y="795" />
              <mxPoint x="80" y="865" />
              <mxPoint x="80" y="910" />
            </Array>
          </mxGeometry>
        </mxCell>
        <mxCell id="O7LTYCWYYsUHRz5URTXL-52" value="" style="endArrow=classic;html=1;rounded=0;fontSize=13;fontColor=#000000;exitX=1;exitY=0.5;exitDx=0;exitDy=0;entryX=1;entryY=0.5;entryDx=0;entryDy=0;" edge="1" parent="1" source="O7LTYCWYYsUHRz5URTXL-35" target="O7LTYCWYYsUHRz5URTXL-43">
          <mxGeometry width="50" height="50" relative="1" as="geometry">
            <mxPoint x="390" y="935" as="sourcePoint" />
            <mxPoint x="440" y="885" as="targetPoint" />
            <Array as="points">
              <mxPoint x="460" y="795" />
              <mxPoint x="460" y="940" />
            </Array>
          </mxGeometry>
        </mxCell>
        <mxCell id="O7LTYCWYYsUHRz5URTXL-53" value="" style="endArrow=classic;html=1;rounded=0;fontSize=13;fontColor=#000000;exitX=0.5;exitY=1;exitDx=0;exitDy=0;entryX=1;entryY=0.5;entryDx=0;entryDy=0;" edge="1" parent="1" source="O7LTYCWYYsUHRz5URTXL-36" target="O7LTYCWYYsUHRz5URTXL-47">
          <mxGeometry width="50" height="50" relative="1" as="geometry">
            <mxPoint x="390" y="935" as="sourcePoint" />
            <mxPoint x="440" y="885" as="targetPoint" />
            <Array as="points">
              <mxPoint x="540" y="970" />
            </Array>
          </mxGeometry>
        </mxCell>
        <mxCell id="O7LTYCWYYsUHRz5URTXL-55" value="" style="shape=flexArrow;endArrow=classic;html=1;rounded=0;fontSize=13;fontColor=#000000;" edge="1" parent="1">
          <mxGeometry width="50" height="50" relative="1" as="geometry">
            <mxPoint x="330" y="989" as="sourcePoint" />
            <mxPoint x="330" y="1039" as="targetPoint" />
          </mxGeometry>
        </mxCell>
        <mxCell id="O7LTYCWYYsUHRz5URTXL-56" value="Account Number/Debit Card Already Present ?" style="rounded=1;whiteSpace=wrap;html=1;labelBackgroundColor=#FFFFFF;fontSize=13;fontColor=#000000;" vertex="1" parent="1">
          <mxGeometry x="250" y="1045" width="170" height="100" as="geometry" />
        </mxCell>
        <mxCell id="O7LTYCWYYsUHRz5URTXL-57" value="" style="endArrow=classic;html=1;rounded=0;fontSize=13;fontColor=#000000;entryX=0;entryY=0;entryDx=0;entryDy=52.5;entryPerimeter=0;exitX=0;exitY=0.75;exitDx=0;exitDy=0;" edge="1" parent="1" source="O7LTYCWYYsUHRz5URTXL-62" target="O7LTYCWYYsUHRz5URTXL-5">
          <mxGeometry width="50" height="50" relative="1" as="geometry">
            <mxPoint x="540" y="1068" as="sourcePoint" />
            <mxPoint x="440" y="1045" as="targetPoint" />
          </mxGeometry>
        </mxCell>
        <mxCell id="O7LTYCWYYsUHRz5URTXL-62" value="&lt;b&gt;Regex&lt;/b&gt; to identify&amp;nbsp;&lt;br&gt;Account No or&amp;nbsp;&lt;br&gt;Debit Card" style="rounded=0;whiteSpace=wrap;html=1;labelBackgroundColor=#FFFFFF;fontSize=13;fontColor=#000000;direction=west;" vertex="1" parent="1">
          <mxGeometry x="469" y="1045" width="111" height="100" as="geometry" />
        </mxCell>
        <mxCell id="O7LTYCWYYsUHRz5URTXL-63" value="" style="endArrow=classic;html=1;rounded=0;fontSize=13;fontColor=#000000;entryX=0;entryY=0;entryDx=0;entryDy=52.5;entryPerimeter=0;exitX=-0.02;exitY=0.105;exitDx=0;exitDy=0;exitPerimeter=0;" edge="1" parent="1" source="O7LTYCWYYsUHRz5URTXL-62">
          <mxGeometry width="50" height="50" relative="1" as="geometry">
            <mxPoint x="580" y="1135" as="sourcePoint" />
            <mxPoint x="670" y="1135" as="targetPoint" />
          </mxGeometry>
        </mxCell>
        <mxCell id="O7LTYCWYYsUHRz5URTXL-66" value="No" style="endArrow=classic;html=1;rounded=0;fontSize=13;fontColor=#000000;entryX=1;entryY=0.5;entryDx=0;entryDy=0;exitX=1;exitY=0.5;exitDx=0;exitDy=0;" edge="1" parent="1" source="O7LTYCWYYsUHRz5URTXL-56" target="O7LTYCWYYsUHRz5URTXL-62">
          <mxGeometry width="50" height="50" relative="1" as="geometry">
            <mxPoint x="380" y="1175" as="sourcePoint" />
            <mxPoint x="430" y="1125" as="targetPoint" />
          </mxGeometry>
        </mxCell>
        <mxCell id="O7LTYCWYYsUHRz5URTXL-70" value="Bank Statements Aggregated" style="shape=cylinder3;whiteSpace=wrap;html=1;boundedLbl=1;backgroundOutline=1;size=15;labelBackgroundColor=#FFFFFF;fontSize=13;fontColor=#000000;" vertex="1" parent="1">
          <mxGeometry x="650" y="815" width="140" height="120" as="geometry" />
        </mxCell>
        <mxCell id="O7LTYCWYYsUHRz5URTXL-71" value="" style="endArrow=classic;html=1;rounded=0;fontSize=13;fontColor=#000000;exitX=0.836;exitY=0.983;exitDx=0;exitDy=0;exitPerimeter=0;entryX=0.5;entryY=1;entryDx=0;entryDy=0;entryPerimeter=0;" edge="1" parent="1" source="O7LTYCWYYsUHRz5URTXL-47" target="O7LTYCWYYsUHRz5URTXL-70">
          <mxGeometry width="50" height="50" relative="1" as="geometry">
            <mxPoint x="370" y="1045" as="sourcePoint" />
            <mxPoint x="420" y="995" as="targetPoint" />
            <Array as="points">
              <mxPoint x="368" y="1005" />
              <mxPoint x="720" y="1005" />
            </Array>
          </mxGeometry>
        </mxCell>
        <mxCell id="O7LTYCWYYsUHRz5URTXL-72" value="Update the database" style="edgeLabel;html=1;align=center;verticalAlign=middle;resizable=0;points=[];fontSize=13;fontColor=#000000;" vertex="1" connectable="0" parent="O7LTYCWYYsUHRz5URTXL-71">
          <mxGeometry x="0.8215" y="-1" relative="1" as="geometry">
            <mxPoint as="offset" />
          </mxGeometry>
        </mxCell>
        <mxCell id="O7LTYCWYYsUHRz5URTXL-74" style="edgeStyle=orthogonalEdgeStyle;rounded=0;orthogonalLoop=1;jettySize=auto;html=1;exitX=0.5;exitY=1;exitDx=0;exitDy=0;entryX=0.433;entryY=-0.008;entryDx=0;entryDy=0;entryPerimeter=0;fontSize=13;fontColor=#000000;" edge="1" parent="1" source="O7LTYCWYYsUHRz5URTXL-73" target="O7LTYCWYYsUHRz5URTXL-37">
          <mxGeometry relative="1" as="geometry" />
        </mxCell>
        <mxCell id="O7LTYCWYYsUHRz5URTXL-75" value="Save the Mode of Payment" style="edgeLabel;html=1;align=center;verticalAlign=middle;resizable=0;points=[];fontSize=13;fontColor=#000000;" vertex="1" connectable="0" parent="O7LTYCWYYsUHRz5URTXL-74">
          <mxGeometry x="-0.1308" y="-3" relative="1" as="geometry">
            <mxPoint as="offset" />
          </mxGeometry>
        </mxCell>
        <mxCell id="O7LTYCWYYsUHRz5URTXL-73" value="&lt;b style=&quot;background-color: rgb(212 , 225 , 245)&quot;&gt;Filter4:&lt;/b&gt;&lt;br&gt;Identify Mode of Payment from a given set of Modes of Payment" style="rounded=0;whiteSpace=wrap;html=1;fontSize=12;" vertex="1" parent="1">
          <mxGeometry x="250" y="560" width="250" height="70" as="geometry" />
        </mxCell>
        <mxCell id="O7LTYCWYYsUHRz5URTXL-78" style="edgeStyle=orthogonalEdgeStyle;rounded=0;orthogonalLoop=1;jettySize=auto;html=1;exitX=1;exitY=0.5;exitDx=0;exitDy=0;entryX=0.5;entryY=1;entryDx=0;entryDy=0;entryPerimeter=0;fontSize=13;fontColor=#000000;" edge="1" parent="1" source="O7LTYCWYYsUHRz5URTXL-76" target="O7LTYCWYYsUHRz5URTXL-6">
          <mxGeometry relative="1" as="geometry" />
        </mxCell>
        <mxCell id="O7LTYCWYYsUHRz5URTXL-79" value="Save the recalculated Balance&amp;nbsp;&lt;br&gt;in the db" style="edgeLabel;html=1;align=center;verticalAlign=middle;resizable=0;points=[];fontSize=13;fontColor=#000000;" vertex="1" connectable="0" parent="O7LTYCWYYsUHRz5URTXL-78">
          <mxGeometry x="-0.1824" y="4" relative="1" as="geometry">
            <mxPoint as="offset" />
          </mxGeometry>
        </mxCell>
        <mxCell id="O7LTYCWYYsUHRz5URTXL-76" value="Recalculate Current Balance for each of the account numbers" style="rounded=0;whiteSpace=wrap;html=1;labelBackgroundColor=#FFFFFF;fontSize=13;fontColor=#000000;" vertex="1" parent="1">
          <mxGeometry x="230" y="1210" width="230" height="120" as="geometry" />
        </mxCell>
        <mxCell id="O7LTYCWYYsUHRz5URTXL-77" value="" style="endArrow=classic;html=1;rounded=0;fontSize=13;fontColor=#000000;exitX=0.086;exitY=1.117;exitDx=0;exitDy=0;exitPerimeter=0;entryX=0;entryY=0.5;entryDx=0;entryDy=0;" edge="1" parent="1" source="O7LTYCWYYsUHRz5URTXL-47" target="O7LTYCWYYsUHRz5URTXL-76">
          <mxGeometry width="50" height="50" relative="1" as="geometry">
            <mxPoint x="390" y="1230" as="sourcePoint" />
            <mxPoint x="440" y="1180" as="targetPoint" />
            <Array as="points">
              <mxPoint x="158" y="1270" />
            </Array>
          </mxGeometry>
        </mxCell>
      </root>
    </mxGraphModel>
  </diagram>
</mxfile>
